<?xml version="1.0" encoding="UTF-8" standalone="no"?>
<!-- Generator: Adobe Illustrator 19.0.0, SVG Export Plug-In . SVG Version: 6.00 Build 0)  -->

<svg
   xmlns:dc="http://purl.org/dc/elements/1.1/"
   xmlns:cc="http://creativecommons.org/ns#"
   xmlns:rdf="http://www.w3.org/1999/02/22-rdf-syntax-ns#"
   xmlns:svg="http://www.w3.org/2000/svg"
   xmlns="http://www.w3.org/2000/svg"
   xmlns:sodipodi="http://sodipodi.sourceforge.net/DTD/sodipodi-0.dtd"
   xmlns:inkscape="http://www.inkscape.org/namespaces/inkscape"
   version="1.1"
   id="Capa_1"
   x="0px"
   y="0px"
   viewBox="0 0 589.91412 512"
   xml:space="preserve"
   sodipodi:docname="marcador-de-posicion.svg"
   width="589.91412"
   height="512"
   inkscape:version="0.92.5 (2060ec1f9f, 2020-04-08)"><metadata
   id="metadata3831"><rdf:RDF><cc:Work
       rdf:about=""><dc:format>image/svg+xml</dc:format><dc:type
         rdf:resource="http://purl.org/dc/dcmitype/StillImage" /></cc:Work></rdf:RDF></metadata><defs
   id="defs3829" /><sodipodi:namedview
   pagecolor="#ffffff"
   bordercolor="#666666"
   borderopacity="1"
   objecttolerance="10"
   gridtolerance="10"
   guidetolerance="10"
   inkscape:pageopacity="0"
   inkscape:pageshadow="2"
   inkscape:window-width="1920"
   inkscape:window-height="976"
   id="namedview3827"
   showgrid="false"
   inkscape:zoom="0.55104611"
   inkscape:cx="-220.32802"
   inkscape:cy="360.81838"
   inkscape:window-x="0"
   inkscape:window-y="27"
   inkscape:window-maximized="1"
   inkscape:current-layer="g3846" />

<g
   id="g3841"
   transform="translate(38.957562)"><path
     id="path3792"
     d="M 256,0.122 C 148.624,0.122 61.046,87.7 61.046,195.076 c 0,42.589 13.496,83.079 38.992,116.971 L 244.002,506.002 C 246.099,509 251.8,512 256,512 c 4.5,0 9.9,-3.299 11.998,-5.999 0.597,-0.901 145.464,-196.054 146.665,-197.854 0.3,0 0.3,0 0.3,-0.298 23.395,-32.993 35.99,-71.984 35.99,-112.773 C 450.954,87.701 363.376,0.122 256,0.122 Z m 0,299.929 c -57.884,0 -104.975,-47.089 -104.975,-104.975 0,-57.886 47.091,-104.975 104.975,-104.975 57.884,0 104.975,47.089 104.975,104.975 0,57.886 -47.091,104.975 -104.975,104.975 z"
     style="fill:#fd003a"
     inkscape:connector-curvature="0" /><path
     id="path3794"
     d="m 256,0 v 89.979 c 57.884,0 104.975,47.089 104.975,104.975 0,57.886 -47.091,104.975 -104.975,104.975 v 211.949 c 4.5,0 9.9,-3.299 11.998,-5.999 0.597,-0.901 145.464,-196.054 146.665,-197.854 0.3,0 0.3,0 0.3,-0.298 23.395,-32.993 35.99,-71.984 35.99,-112.773 C 450.954,87.578 363.376,0 256,0 Z"
     style="fill:#dd0030"
     inkscape:connector-curvature="0" /></g>
<g
   id="g3796"
   transform="translate(80.842102)">
</g>
<g
   id="g3798"
   transform="translate(80.842102)">
</g>
<g
   id="g3800"
   transform="translate(80.842102)">
</g>
<g
   id="g3802"
   transform="translate(80.842102)">
</g>
<g
   id="g3804"
   transform="translate(80.842102)">
</g>
<g
   id="g3806"
   transform="translate(80.842102)">
</g>
<g
   id="g3808"
   transform="translate(80.842102)">
</g>
<g
   id="g3810"
   transform="translate(80.842102)">
</g>
<g
   id="g3812"
   transform="translate(80.842102)">
</g>
<g
   id="g3814"
   transform="translate(80.842102)">
</g>
<g
   id="g3816"
   transform="translate(80.842102)">
</g>
<g
   id="g3818"
   transform="translate(80.842102)">
</g>
<g
   id="g3820"
   transform="translate(80.842102)">
</g>
<g
   id="g3822"
   transform="translate(80.842102)">
</g>
<g
   id="g3824"
   transform="translate(80.842102)">
</g>
<g
   id="g3846"
   transform="translate(80.842102,-12.691818)"><rect
     ry="52.61153"
     y="87.899742"
     x="-80.842102"
     height="229.58415"
     width="589.91412"
     id="rect3833" /><text
     id="text3837"
     y="269.82251"
     x="7.5815864"
     style="font-style:normal;font-weight:normal;font-size:194.01934814px;line-height:1.25;font-family:sans-serif;letter-spacing:0px;word-spacing:0px;fill:#ffffff;fill-opacity:1;stroke:none;stroke-width:4.85048342"
     xml:space="preserve"><tspan
       style="font-style:normal;font-variant:normal;font-weight:bold;font-stretch:normal;font-family:Ubuntu;-inkscape-font-specification:'Ubuntu Bold';stroke-width:4.85048342"
       y="269.82251"
       x="7.5815864"
       id="tspan3835"
       sodipodi:role="line">END</tspan></text>
</g></svg>